# xmcd
#
# Track frame offsets: 
#        150
#        15110
#        29715
#        49421
#        72553
#        92987
#        114145
#        129140
#        144645
#        164590
#        180201
#        195552
#
# Disc length: 2865 seconds
#
# Revision: 1
# Processed by: cddbd v1.5.2PL0 Copyright (c) Steve Scherf et al.
# Submitted via: ExactAudioCopyFreeDBPlugin 1.0
#
DISCID=9e0b2f0c
DTITLE=The Hitman Blues Band - Pale Rider
DYEAR=2008
DGENRE=Blues
TTITLE0=Your blues
TTITLE1=Trouble on the line
TTITLE2=Blues can't hit
TTITLE3=red hook
TTITLE4=I know about the blues
TTITLE5=Blessed man
TTITLE6=miss Catherine
TTITLE7=I'm coming for you
TTITLE8=Calamity's Child
TTITLE9=This too shall pass
TTITLE10=Pale Rider
TTITLE11=Death Letter
EXTD=
EXTT0=
EXTT1=
EXTT2=
EXTT3=
EXTT4=
EXTT5=
EXTT6=
EXTT7=
EXTT8=
EXTT9=
EXTT10=
EXTT11=
PLAYORDER=
